# This file is brought to you by Roblox Corporation
# Generated by Roblox Studio

mtllib tsunami.mtl

g Tsunami1

v 270.85 8.00499 9.13936 
v 270.85 64.8339 -163.891 
v 270.85 21.113 5.00642 
v 270.85 0 14.2391 
v 270.85 0 14.2391 
v 270.85 8.00499 9.13936 
v -266.85 0 14.2391 
v 270.85 34.8441 4.40689 
v 270.85 101 -7.60243 
v 270.85 21.113 5.00642 
v -266.85 21.113 5.00642 
v 270.85 48.2624 7.38167 
v 270.85 34.8441 4.40689 
v 270.85 60.4537 13.728 
v 270.85 48.2624 7.38167 
v -266.85 34.8441 4.40689 
v 270.85 60.4537 13.728 
v -266.85 60.4537 13.728 
v 270.85 70.5869 23.0135 
v -266.85 70.5869 23.0135 
v 270.85 70.5869 23.0135 
v 270.85 77.9716 34.6051 
v 270.85 81.53 45.8908 
v 270.85 70.5869 23.0135 
v 270.85 77.9716 34.6051 
v -266.85 70.5869 23.0135 
v 270.85 81.53 45.8908 
v -266.85 81.53 45.8908 
v 270.85 81.53 45.8908 
v 270.85 101 -7.60243 
v -266.85 101 -7.60243 
v -266.85 101 -7.60243 
v 270.85 101 -7.60243 
v -266.85 64.8339 -163.891 
v -266.85 81.53 45.8908 
v -266.85 101 -7.60243 
v -266.85 77.9716 34.6051 
v -266.85 81.53 45.8908 
v -266.85 8.00499 9.13936 
v -266.85 0 14.2391 
v -266.85 8.00499 9.13936 
v -266.85 64.8339 -163.891 
v -266.85 21.113 5.00642 
v -266.85 0 14.2391 
v -266.85 64.8339 -163.891 
v 270.85 0 14.2391 
v -266.85 34.8441 4.40689 
v -266.85 48.2624 7.38167 
v -266.85 48.2624 7.38167 
v -266.85 60.4537 13.728 
v -266.85 70.5869 23.0135 
v -266.85 77.9716 34.6051 
v 270.85 64.8339 -163.891 
v 270.85 64.8339 -163.891 

vn 1 0 0 
vn 1 0 0 
vn 1 0 0 
vn 1 0 0 
vn 0 0.582677 0.818898 
vn 0 0.425197 0.905512 
vn 0 0.582677 0.818898 
vn 1 0 0 
vn 1 0 0 
vn 0 0.173228 0.984252 
vn 0 0.173228 0.984252 
vn 1 0 0 
vn 0 -0.0866142 1 
vn 1 0 0 
vn 0 -0.338583 0.937008 
vn 0 -0.0866142 1 
vn 0 -0.574803 0.818898 
vn 0 -0.574803 0.818898 
vn 0 -0.76378 0.645669 
vn 0 -0.76378 0.645669 
vn 1 0 0 
vn 1 0 0 
vn 1 0 0 
vn 0 -0.76378 0.645669 
vn 0 -0.905512 0.425197 
vn 0 -0.76378 0.645669 
vn 0 -0.976378 0.212598 
vn 0 -0.976378 0.212598 
vn 0 0.937008 0.338583 
vn 0 0.937008 0.338583 
vn 0 0.937008 0.338583 
vn 0 0.976378 -0.228346 
vn 0 0.976378 -0.228346 
vn 0 0.976378 -0.228346 
vn -1 0 0 
vn -1 0 0 
vn -1 0 0 
vn 0 0.937008 0.338583 
vn 0 0.425197 0.905512 
vn -1 0 0 
vn -1 0 0 
vn -1 0 0 
vn -1 0 0 
vn 0 -0.937008 -0.338583 
vn 0 -0.937008 -0.338583 
vn 0 -0.937008 -0.338583 
vn -1 0 0 
vn 0 -0.338583 0.937008 
vn -1 0 0 
vn -1 0 0 
vn -1 0 0 
vn 0 -0.905512 0.425197 
vn 0 0.976378 -0.228346 
vn 0 -0.937008 -0.338583 

vt -224.454 249.393 
vt -246.082 242.289 
vt -224.97 247.754 
vt -223.816 250.393 
vt -266.577 250.393 
vt -266.577 249.393 
vt -199.365 250.393 
vt -225.045 246.038 
vt -226.546 237.768 
vt -266.577 247.754 
vt -199.365 247.754 
vt -224.673 244.36 
vt -266.577 246.038 
vt -223.88 242.836 
vt -266.577 244.36 
vt -199.365 246.038 
vt -266.577 242.836 
vt -199.365 242.836 
vt -266.577 241.57 
vt -199.365 241.57 
vt -222.719 241.57 
vt -221.27 240.647 
vt -219.86 240.202 
vt -266.577 233.829 
vt -266.577 232.38 
vt -199.365 233.829 
vt -266.577 230.969 
vt -199.365 230.969 
vt -199.365 230.969 
vt -199.365 237.656 
vt -266.577 237.656 
vt -266.577 237.656 
vt -199.365 237.656 
vt -266.577 257.192 
vt -246.082 240.202 
vt -239.396 237.768 
vt -244.672 240.647 
vt -266.577 230.969 
vt -199.365 249.393 
vt -242.126 250.393 
vt -241.488 249.393 
vt -219.86 242.289 
vt -240.972 247.754 
vt -199.365 234.926 
vt -199.365 257.192 
vt -266.577 234.926 
vt -240.897 246.038 
vt -199.365 244.36 
vt -241.269 244.36 
vt -242.062 242.836 
vt -243.223 241.57 
vt -199.365 232.38 
vt -199.365 257.192 
vt -266.577 257.192 

usemtl Tsunami1Mtl

f 1/1/1 2/2/2 3/3/3 
f 2/2/2 1/1/1 4/4/4 
f 5/5/5 6/6/6 7/7/7 
f 2/2/2 8/8/8 3/3/3 
f 8/8/8 2/2/2 9/9/9 
f 6/6/6 10/10/10 11/11/11 
f 8/8/8 9/9/9 12/12/12 
f 10/10/10 13/13/13 11/11/11 
f 12/12/12 9/9/9 14/14/14 
f 13/13/13 15/15/15 16/16/16 
f 15/15/15 17/17/17 18/18/18 
f 17/17/17 19/19/19 20/20/20 
f 21/21/21 14/14/14 9/9/9 
f 22/22/22 9/9/9 23/23/23 
f 9/9/9 22/22/22 21/21/21 
f 24/24/24 25/25/25 26/26/26 
f 25/25/25 27/27/27 28/28/28 
f 29/29/29 30/30/30 31/31/31 
f 32/32/32 33/33/33 34/34/34 
f 35/35/35 36/36/36 37/37/37 
f 31/31/31 38/38/38 29/29/29 
f 39/39/39 7/7/7 6/6/6 
f 40/40/40 41/41/41 42/42/42 
f 42/42/42 41/41/41 43/43/43 
f 44/44/44 45/45/45 46/46/46 
f 11/11/11 39/39/39 6/6/6 
f 16/16/16 11/11/11 13/13/13 
f 43/43/43 47/47/47 42/42/42 
f 48/48/48 16/16/16 15/15/15 
f 47/47/47 49/49/49 36/36/36 
f 47/47/47 36/36/36 42/42/42 
f 18/18/18 48/48/48 15/15/15 
f 49/49/49 50/50/50 36/36/36 
f 36/36/36 50/50/50 51/51/51 
f 20/20/20 18/18/18 17/17/17 
f 36/36/36 51/51/51 37/37/37 
f 52/52/52 26/26/26 25/25/25 
f 28/28/28 52/52/52 25/25/25 
f 53/53/53 34/34/34 33/33/33 
f 45/45/45 54/54/54 46/46/46 

