# This file is brought to you by Roblox Corporation
# Generated by Roblox Studio

mtllib 1.mtl

g Part1

v 721.771 206.4 42.1961 
v 720.904 206.4 42.6961 
v 721.771 191.4 42.1961 
v 720.904 191.4 42.6961 
v 720.404 206.4 41.8301 
v 720.904 206.4 42.6961 
v 721.271 206.4 41.3301 
v 721.771 206.4 42.1961 
v 720.904 206.4 42.6961 
v 720.404 206.4 41.8301 
v 720.904 191.4 42.6961 
v 720.404 191.4 41.8301 
v 720.404 206.4 41.8301 
v 721.271 206.4 41.3301 
v 720.404 191.4 41.8301 
v 721.271 191.4 41.3301 
v 721.271 191.4 41.3301 
v 721.771 191.4 42.1961 
v 720.404 191.4 41.8301 
v 720.904 191.4 42.6961 
v 721.271 206.4 41.3301 
v 721.771 206.4 42.1961 
v 721.271 191.4 41.3301 
v 721.771 191.4 42.1961 

vn 0.496063 0 0.866142 
vn 0.496063 0 0.866142 
vn 0.496063 0 0.866142 
vn 0.496063 0 0.866142 
vn 0 1 0 
vn 0 1 0 
vn 0 1 0 
vn 0 1 0 
vn -0.866142 0 0.496063 
vn -0.866142 0 0.496063 
vn -0.866142 0 0.496063 
vn -0.866142 0 0.496063 
vn -0.496063 0 -0.866142 
vn -0.496063 0 -0.866142 
vn -0.496063 0 -0.866142 
vn -0.496063 0 -0.866142 
vn 0 -1 0 
vn 0 -1 0 
vn 0 -1 0 
vn 0 -1 0 
vn 0.866142 0 -0.496063 
vn 0.866142 0 -0.496063 
vn 0.866142 0 -0.496063 
vn 0.866142 0 -0.496063 

vt 0.125 -3.25 
vt 0 -3.25 
vt 0.125 -5.125 
vt 0 -5.125 
vt 0.125 -3.25 
vt 0 -3.25 
vt 0.125 -3.375 
vt 0 -3.375 
vt 0.125 -3.25 
vt 0 -3.25 
vt 0.125 -5.125 
vt 0 -5.125 
vt 0.125 -3.25 
vt 0 -3.25 
vt 0.125 -5.125 
vt 0 -5.125 
vt 0.125 -3.25 
vt 0 -3.25 
vt 0.125 -3.375 
vt 0 -3.375 
vt 0.125 -3.25 
vt 0 -3.25 
vt 0.125 -5.125 
vt 0 -5.125 

usemtl Part1Mtl

f 1/1/1 2/2/2 3/3/3 
f 3/3/3 2/2/2 4/4/4 
f 5/5/5 6/6/6 7/7/7 
f 7/7/7 6/6/6 8/8/8 
f 9/9/9 10/10/10 11/11/11 
f 11/11/11 10/10/10 12/12/12 
f 13/13/13 14/14/14 15/15/15 
f 15/15/15 14/14/14 16/16/16 
f 17/17/17 18/18/18 19/19/19 
f 19/19/19 18/18/18 20/20/20 
f 21/21/21 22/22/22 23/23/23 
f 23/23/23 22/22/22 24/24/24 

g Part2

v 721.271 194.4 41.3301 
v 720.405 194.4 41.8301 
v 721.271 193.4 41.3301 
v 720.405 193.4 41.8301 
v 715.905 194.4 34.0359 
v 720.405 194.4 41.8301 
v 716.771 194.4 33.5359 
v 721.271 194.4 41.3301 
v 720.405 194.4 41.8301 
v 715.905 194.4 34.0359 
v 720.405 193.4 41.8301 
v 715.905 193.4 34.0359 
v 715.905 194.4 34.0359 
v 716.771 194.4 33.5359 
v 715.905 193.4 34.0359 
v 716.771 193.4 33.5359 
v 716.771 193.4 33.5359 
v 721.271 193.4 41.3301 
v 715.905 193.4 34.0359 
v 720.405 193.4 41.8301 
v 716.771 194.4 33.5359 
v 721.271 194.4 41.3301 
v 716.771 193.4 33.5359 
v 721.271 193.4 41.3301 

vn 0.496063 0 0.866142 
vn 0.496063 0 0.866142 
vn 0.496063 0 0.866142 
vn 0.496063 0 0.866142 
vn 0 1 0 
vn 0 1 0 
vn 0 1 0 
vn 0 1 0 
vn -0.866142 0 0.496063 
vn -0.866142 0 0.496063 
vn -0.866142 0 0.496063 
vn -0.866142 0 0.496063 
vn -0.496063 0 -0.866142 
vn -0.496063 0 -0.866142 
vn -0.496063 0 -0.866142 
vn -0.496063 0 -0.866142 
vn 0 -1 0 
vn 0 -1 0 
vn 0 -1 0 
vn 0 -1 0 
vn 0.866142 0 -0.496063 
vn 0.866142 0 -0.496063 
vn 0.866142 0 -0.496063 
vn 0.866142 0 -0.496063 

vt 7.875 -6.75 
vt 7.75 -6.75 
vt 7.875 -6.875 
vt 7.75 -6.875 
vt 8.875 -6.75 
vt 7.75 -6.75 
vt 8.875 -6.875 
vt 7.75 -6.875 
vt 8.875 -6.75 
vt 7.75 -6.75 
vt 8.875 -6.875 
vt 7.75 -6.875 
vt 7.875 -6.75 
vt 7.75 -6.75 
vt 7.875 -6.875 
vt 7.75 -6.875 
vt 8.875 -6.75 
vt 7.75 -6.75 
vt 8.875 -6.875 
vt 7.75 -6.875 
vt 8.875 -6.75 
vt 7.75 -6.75 
vt 8.875 -6.875 
vt 7.75 -6.875 

usemtl Part1Mtl

f 25/25/25 26/26/26 27/27/27 
f 27/27/27 26/26/26 28/28/28 
f 29/29/29 30/30/30 31/31/31 
f 31/31/31 30/30/30 32/32/32 
f 33/33/33 34/34/34 35/35/35 
f 35/35/35 34/34/34 36/36/36 
f 37/37/37 38/38/38 39/39/39 
f 39/39/39 38/38/38 40/40/40 
f 41/41/41 42/42/42 43/43/43 
f 43/43/43 42/42/42 44/44/44 
f 45/45/45 46/46/46 47/47/47 
f 47/47/47 46/46/46 48/48/48 

g Board1

v 721.271 206.4 41.3301 
v 720.405 206.4 41.8301 
v 721.271 194.4 41.3301 
v 720.405 194.4 41.8301 
v 715.905 206.4 34.0359 
v 720.405 206.4 41.8301 
v 716.771 206.4 33.5359 
v 721.271 206.4 41.3301 
v 720.405 206.4 41.8301 
v 715.905 206.4 34.0359 
v 720.405 194.4 41.8301 
v 715.905 194.4 34.0359 
v 715.905 206.4 34.0359 
v 716.771 206.4 33.5359 
v 715.905 194.4 34.0359 
v 716.771 194.4 33.5359 
v 716.771 194.4 33.5359 
v 721.271 194.4 41.3301 
v 715.905 194.4 34.0359 
v 720.405 194.4 41.8301 
v 716.771 206.4 33.5359 
v 721.271 206.4 41.3301 
v 716.771 194.4 33.5359 
v 721.271 194.4 41.3301 

vn 0.496063 0 0.866142 
vn 0.496063 0 0.866142 
vn 0.496063 0 0.866142 
vn 0.496063 0 0.866142 
vn 0 1 0 
vn 0 1 0 
vn 0 1 0 
vn 0 1 0 
vn -0.866142 0 0.496063 
vn -0.866142 0 0.496063 
vn -0.866142 0 0.496063 
vn -0.866142 0 0.496063 
vn -0.496063 0 -0.866142 
vn -0.496063 0 -0.866142 
vn -0.496063 0 -0.866142 
vn -0.496063 0 -0.866142 
vn 0 -1 0 
vn 0 -1 0 
vn 0 -1 0 
vn 0 -1 0 
vn 0.866142 0 -0.496063 
vn 0.866142 0 -0.496063 
vn 0.866142 0 -0.496063 
vn 0.866142 0 -0.496063 

vt 4.625 -3.25 
vt 4.5 -3.25 
vt 4.625 -4.75 
vt 4.5 -4.75 
vt 5.625 -3.25 
vt 4.5 -3.25 
vt 5.625 -3.375 
vt 4.5 -3.375 
vt 5.625 -3.25 
vt 4.5 -3.25 
vt 5.625 -4.75 
vt 4.5 -4.75 
vt 4.625 -3.25 
vt 4.5 -3.25 
vt 4.625 -4.75 
vt 4.5 -4.75 
vt 5.625 -3.25 
vt 4.5 -3.25 
vt 5.625 -3.375 
vt 4.5 -3.375 
vt 5.625 -3.25 
vt 4.5 -3.25 
vt 5.625 -4.75 
vt 4.5 -4.75 

usemtl Board1Mtl

f 49/49/49 50/50/50 51/51/51 
f 51/51/51 50/50/50 52/52/52 
f 53/53/53 54/54/54 55/55/55 
f 55/55/55 54/54/54 56/56/56 
f 57/57/57 58/58/58 59/59/59 
f 59/59/59 58/58/58 60/60/60 
f 61/61/61 62/62/62 63/63/63 
f 63/63/63 62/62/62 64/64/64 
f 65/65/65 66/66/66 67/67/67 
f 67/67/67 66/66/66 68/68/68 
f 69/69/69 70/70/70 71/71/71 
f 71/71/71 70/70/70 72/72/72 

g Board2

v 716.788 206.4 33.526 
v 721.288 206.4 41.3202 
v 716.788 194.4 33.526 
v 721.288 194.4 41.3202 

vn 0.866142 0 -0.496063 
vn 0.866142 0 -0.496063 
vn 0.866142 0 -0.496063 
vn 0.866142 0 -0.496063 

vt 1 1 
vt 0 1 
vt 1 0 
vt 0 0 

usemtl Board2Mtl

f 73/73/73 74/74/74 75/75/75 
f 75/75/75 74/74/74 76/76/76 

g Part3

v 716.771 206.4 33.5359 
v 715.904 206.4 34.0359 
v 716.771 191.4 33.5359 
v 715.904 191.4 34.0359 
v 715.404 206.4 33.1699 
v 715.904 206.4 34.0359 
v 716.271 206.4 32.6699 
v 716.771 206.4 33.5359 
v 715.904 206.4 34.0359 
v 715.404 206.4 33.1699 
v 715.904 191.4 34.0359 
v 715.404 191.4 33.1699 
v 715.404 206.4 33.1699 
v 716.271 206.4 32.6699 
v 715.404 191.4 33.1699 
v 716.271 191.4 32.6699 
v 716.271 191.4 32.6699 
v 716.771 191.4 33.5359 
v 715.404 191.4 33.1699 
v 715.904 191.4 34.0359 
v 716.271 206.4 32.6699 
v 716.771 206.4 33.5359 
v 716.271 191.4 32.6699 
v 716.771 191.4 33.5359 

vn 0.496063 0 0.866142 
vn 0.496063 0 0.866142 
vn 0.496063 0 0.866142 
vn 0.496063 0 0.866142 
vn 0 1 0 
vn 0 1 0 
vn 0 1 0 
vn 0 1 0 
vn -0.866142 0 0.496063 
vn -0.866142 0 0.496063 
vn -0.866142 0 0.496063 
vn -0.866142 0 0.496063 
vn -0.496063 0 -0.866142 
vn -0.496063 0 -0.866142 
vn -0.496063 0 -0.866142 
vn -0.496063 0 -0.866142 
vn 0 -1 0 
vn 0 -1 0 
vn 0 -1 0 
vn 0 -1 0 
vn 0.866142 0 -0.496063 
vn 0.866142 0 -0.496063 
vn 0.866142 0 -0.496063 
vn 0.866142 0 -0.496063 

vt 7.375 -3.5 
vt 7.25 -3.5 
vt 7.375 -5.375 
vt 7.25 -5.375 
vt 7.375 -3.5 
vt 7.25 -3.5 
vt 7.375 -3.625 
vt 7.25 -3.625 
vt 7.375 -3.5 
vt 7.25 -3.5 
vt 7.375 -5.375 
vt 7.25 -5.375 
vt 7.375 -3.5 
vt 7.25 -3.5 
vt 7.375 -5.375 
vt 7.25 -5.375 
vt 7.375 -3.5 
vt 7.25 -3.5 
vt 7.375 -3.625 
vt 7.25 -3.625 
vt 7.375 -3.5 
vt 7.25 -3.5 
vt 7.375 -5.375 
vt 7.25 -5.375 

usemtl Part1Mtl

f 77/77/77 78/78/78 79/79/79 
f 79/79/79 78/78/78 80/80/80 
f 81/81/81 82/82/82 83/83/83 
f 83/83/83 82/82/82 84/84/84 
f 85/85/85 86/86/86 87/87/87 
f 87/87/87 86/86/86 88/88/88 
f 89/89/89 90/90/90 91/91/91 
f 91/91/91 90/90/90 92/92/92 
f 93/93/93 94/94/94 95/95/95 
f 95/95/95 94/94/94 96/96/96 
f 97/97/97 98/98/98 99/99/99 
f 99/99/99 98/98/98 100/100/100 

g Part4

v 721.771 207.4 42.1962 
v 720.905 207.4 42.6962 
v 721.771 206.4 42.1962 
v 720.905 206.4 42.6962 
v 715.405 207.4 33.1699 
v 720.905 207.4 42.6962 
v 716.271 207.4 32.6699 
v 721.771 207.4 42.1962 
v 720.905 207.4 42.6962 
v 715.405 207.4 33.1699 
v 720.905 206.4 42.6962 
v 715.405 206.4 33.1699 
v 715.405 207.4 33.1699 
v 716.271 207.4 32.6699 
v 715.405 206.4 33.1699 
v 716.271 206.4 32.6699 
v 716.271 206.4 32.6699 
v 721.771 206.4 42.1962 
v 715.405 206.4 33.1699 
v 720.905 206.4 42.6962 
v 716.271 207.4 32.6699 
v 721.771 207.4 42.1962 
v 716.271 206.4 32.6699 
v 721.771 206.4 42.1962 

vn 0.496063 0 0.866142 
vn 0.496063 0 0.866142 
vn 0.496063 0 0.866142 
vn 0.496063 0 0.866142 
vn 0 1 0 
vn 0 1 0 
vn 0 1 0 
vn 0 1 0 
vn -0.866142 0 0.496063 
vn -0.866142 0 0.496063 
vn -0.866142 0 0.496063 
vn -0.866142 0 0.496063 
vn -0.496063 0 -0.866142 
vn -0.496063 0 -0.866142 
vn -0.496063 0 -0.866142 
vn -0.496063 0 -0.866142 
vn 0 -1 0 
vn 0 -1 0 
vn 0 -1 0 
vn 0 -1 0 
vn 0.866142 0 -0.496063 
vn 0.866142 0 -0.496063 
vn 0.866142 0 -0.496063 
vn 0.866142 0 -0.496063 

vt 0.125 -6.25 
vt 0 -6.25 
vt 0.125 -6.375 
vt 0 -6.375 
vt 1.375 -6.25 
vt 0 -6.25 
vt 1.375 -6.375 
vt 0 -6.375 
vt 1.375 -6.25 
vt 0 -6.25 
vt 1.375 -6.375 
vt 0 -6.375 
vt 0.125 -6.25 
vt 0 -6.25 
vt 0.125 -6.375 
vt 0 -6.375 
vt 1.375 -6.25 
vt 0 -6.25 
vt 1.375 -6.375 
vt 0 -6.375 
vt 1.375 -6.25 
vt 0 -6.25 
vt 1.375 -6.375 
vt 0 -6.375 

usemtl Part1Mtl

f 101/101/101 102/102/102 103/103/103 
f 103/103/103 102/102/102 104/104/104 
f 105/105/105 106/106/106 107/107/107 
f 107/107/107 106/106/106 108/108/108 
f 109/109/109 110/110/110 111/111/111 
f 111/111/111 110/110/110 112/112/112 
f 113/113/113 114/114/114 115/115/115 
f 115/115/115 114/114/114 116/116/116 
f 117/117/117 118/118/118 119/119/119 
f 119/119/119 118/118/118 120/120/120 
f 121/121/121 122/122/122 123/123/123 
f 123/123/123 122/122/122 124/124/124 

