# This file is brought to you by Roblox Corporation
# Generated by Roblox Studio

mtllib 3.mtl

g Part1

v 802.435 206.4 55.4091 
v 802.939 206.4 56.2728 
v 802.435 191.4 55.4091 
v 802.939 191.4 56.2728 
v 802.076 206.4 56.7768 
v 802.939 206.4 56.2728 
v 801.572 206.4 55.9131 
v 802.435 206.4 55.4091 
v 802.939 206.4 56.2728 
v 802.076 206.4 56.7768 
v 802.939 191.4 56.2728 
v 802.076 191.4 56.7768 
v 802.076 206.4 56.7768 
v 801.572 206.4 55.9131 
v 802.076 191.4 56.7768 
v 801.572 191.4 55.9131 
v 801.572 191.4 55.9131 
v 802.435 191.4 55.4091 
v 802.076 191.4 56.7768 
v 802.939 191.4 56.2728 
v 801.572 206.4 55.9131 
v 802.435 206.4 55.4091 
v 801.572 191.4 55.9131 
v 802.435 191.4 55.4091 

vn 0.866142 0 -0.503937 
vn 0.866142 0 -0.503937 
vn 0.866142 0 -0.503937 
vn 0.866142 0 -0.503937 
vn 0 1 0 
vn 0 1 0 
vn 0 1 0 
vn 0 1 0 
vn 0.503937 0 0.866142 
vn 0.503937 0 0.866142 
vn 0.503937 0 0.866142 
vn 0.503937 0 0.866142 
vn -0.866142 0 0.503937 
vn -0.866142 0 0.503937 
vn -0.866142 0 0.503937 
vn -0.866142 0 0.503937 
vn 0 -1 0 
vn 0 -1 0 
vn 0 -1 0 
vn 0 -1 0 
vn -0.503937 0 -0.866142 
vn -0.503937 0 -0.866142 
vn -0.503937 0 -0.866142 
vn -0.503937 0 -0.866142 

vt 4.375 -3.5 
vt 4.25 -3.5 
vt 4.375 -5.375 
vt 4.25 -5.375 
vt 4.375 -3.5 
vt 4.25 -3.5 
vt 4.375 -3.625 
vt 4.25 -3.625 
vt 4.375 -3.5 
vt 4.25 -3.5 
vt 4.375 -5.375 
vt 4.25 -5.375 
vt 4.375 -3.5 
vt 4.25 -3.5 
vt 4.375 -5.375 
vt 4.25 -5.375 
vt 4.375 -3.5 
vt 4.25 -3.5 
vt 4.375 -3.625 
vt 4.25 -3.625 
vt 4.375 -3.5 
vt 4.25 -3.5 
vt 4.375 -5.375 
vt 4.25 -5.375 

usemtl Part1Mtl

f 1/1/1 2/2/2 3/3/3 
f 3/3/3 2/2/2 4/4/4 
f 5/5/5 6/6/6 7/7/7 
f 7/7/7 6/6/6 8/8/8 
f 9/9/9 10/10/10 11/11/11 
f 11/11/11 10/10/10 12/12/12 
f 13/13/13 14/14/14 15/15/15 
f 15/15/15 14/14/14 16/16/16 
f 17/17/17 18/18/18 19/19/19 
f 19/19/19 18/18/18 20/20/20 
f 21/21/21 22/22/22 23/23/23 
f 23/23/23 22/22/22 24/24/24 

g Part2

v 801.572 194.4 55.913 
v 802.076 194.4 56.7767 
v 801.572 193.4 55.913 
v 802.076 193.4 56.7767 
v 794.303 194.4 61.3131 
v 802.076 194.4 56.7767 
v 793.799 194.4 60.4494 
v 801.572 194.4 55.913 
v 802.076 194.4 56.7767 
v 794.303 194.4 61.3131 
v 802.076 193.4 56.7767 
v 794.303 193.4 61.3131 
v 794.303 194.4 61.3131 
v 793.799 194.4 60.4494 
v 794.303 193.4 61.3131 
v 793.799 193.4 60.4494 
v 793.799 193.4 60.4494 
v 801.572 193.4 55.913 
v 794.303 193.4 61.3131 
v 802.076 193.4 56.7767 
v 793.799 194.4 60.4494 
v 801.572 194.4 55.913 
v 793.799 193.4 60.4494 
v 801.572 193.4 55.913 

vn 0.866142 0 -0.503937 
vn 0.866142 0 -0.503937 
vn 0.866142 0 -0.503937 
vn 0.866142 0 -0.503937 
vn 0 1 0 
vn 0 1 0 
vn 0 1 0 
vn 0 1 0 
vn 0.503937 0 0.866142 
vn 0.503937 0 0.866142 
vn 0.503937 0 0.866142 
vn 0.503937 0 0.866142 
vn -0.866142 0 0.503937 
vn -0.866142 0 0.503937 
vn -0.866142 0 0.503937 
vn -0.866142 0 0.503937 
vn 0 -1 0 
vn 0 -1 0 
vn 0 -1 0 
vn 0 -1 0 
vn -0.503937 0 -0.866142 
vn -0.503937 0 -0.866142 
vn -0.503937 0 -0.866142 
vn -0.503937 0 -0.866142 

vt 3.375 -1.75 
vt 3.25 -1.75 
vt 3.375 -1.875 
vt 3.25 -1.875 
vt 4.375 -1.75 
vt 3.25 -1.75 
vt 4.375 -1.875 
vt 3.25 -1.875 
vt 4.375 -1.75 
vt 3.25 -1.75 
vt 4.375 -1.875 
vt 3.25 -1.875 
vt 3.375 -1.75 
vt 3.25 -1.75 
vt 3.375 -1.875 
vt 3.25 -1.875 
vt 4.375 -1.75 
vt 3.25 -1.75 
vt 4.375 -1.875 
vt 3.25 -1.875 
vt 4.375 -1.75 
vt 3.25 -1.75 
vt 4.375 -1.875 
vt 3.25 -1.875 

usemtl Part1Mtl

f 25/25/25 26/26/26 27/27/27 
f 27/27/27 26/26/26 28/28/28 
f 29/29/29 30/30/30 31/31/31 
f 31/31/31 30/30/30 32/32/32 
f 33/33/33 34/34/34 35/35/35 
f 35/35/35 34/34/34 36/36/36 
f 37/37/37 38/38/38 39/39/39 
f 39/39/39 38/38/38 40/40/40 
f 41/41/41 42/42/42 43/43/43 
f 43/43/43 42/42/42 44/44/44 
f 45/45/45 46/46/46 47/47/47 
f 47/47/47 46/46/46 48/48/48 

g Board1

v 801.572 206.4 55.913 
v 802.076 206.4 56.7767 
v 801.572 194.4 55.913 
v 802.076 194.4 56.7767 
v 794.303 206.4 61.3131 
v 802.076 206.4 56.7767 
v 793.799 206.4 60.4494 
v 801.572 206.4 55.913 
v 802.076 206.4 56.7767 
v 794.303 206.4 61.3131 
v 802.076 194.4 56.7767 
v 794.303 194.4 61.3131 
v 794.303 206.4 61.3131 
v 793.799 206.4 60.4494 
v 794.303 194.4 61.3131 
v 793.799 194.4 60.4494 
v 793.799 194.4 60.4494 
v 801.572 194.4 55.913 
v 794.303 194.4 61.3131 
v 802.076 194.4 56.7767 
v 793.799 206.4 60.4494 
v 801.572 206.4 55.913 
v 793.799 194.4 60.4494 
v 801.572 194.4 55.913 

vn 0.866142 0 -0.503937 
vn 0.866142 0 -0.503937 
vn 0.866142 0 -0.503937 
vn 0.866142 0 -0.503937 
vn 0 1 0 
vn 0 1 0 
vn 0 1 0 
vn 0 1 0 
vn 0.503937 0 0.866142 
vn 0.503937 0 0.866142 
vn 0.503937 0 0.866142 
vn 0.503937 0 0.866142 
vn -0.866142 0 0.503937 
vn -0.866142 0 0.503937 
vn -0.866142 0 0.503937 
vn -0.866142 0 0.503937 
vn 0 -1 0 
vn 0 -1 0 
vn 0 -1 0 
vn 0 -1 0 
vn -0.503937 0 -0.866142 
vn -0.503937 0 -0.866142 
vn -0.503937 0 -0.866142 
vn -0.503937 0 -0.866142 

vt 3.125 -3.75 
vt 3 -3.75 
vt 3.125 -5.25 
vt 3 -5.25 
vt 4.125 -3.75 
vt 3 -3.75 
vt 4.125 -3.875 
vt 3 -3.875 
vt 4.125 -3.75 
vt 3 -3.75 
vt 4.125 -5.25 
vt 3 -5.25 
vt 3.125 -3.75 
vt 3 -3.75 
vt 3.125 -5.25 
vt 3 -5.25 
vt 4.125 -3.75 
vt 3 -3.75 
vt 4.125 -3.875 
vt 3 -3.875 
vt 4.125 -3.75 
vt 3 -3.75 
vt 4.125 -5.25 
vt 3 -5.25 

usemtl Board1Mtl

f 49/49/49 50/50/50 51/51/51 
f 51/51/51 50/50/50 52/52/52 
f 53/53/53 54/54/54 55/55/55 
f 55/55/55 54/54/54 56/56/56 
f 57/57/57 58/58/58 59/59/59 
f 59/59/59 58/58/58 60/60/60 
f 61/61/61 62/62/62 63/63/63 
f 63/63/63 62/62/62 64/64/64 
f 65/65/65 66/66/66 67/67/67 
f 67/67/67 66/66/66 68/68/68 
f 69/69/69 70/70/70 71/71/71 
f 71/71/71 70/70/70 72/72/72 

g Board2

v 793.789 206.4 60.4321 
v 801.562 206.4 55.8957 
v 793.789 194.4 60.4321 
v 801.562 194.4 55.8957 

vn -0.503937 0 -0.866142 
vn -0.503937 0 -0.866142 
vn -0.503937 0 -0.866142 
vn -0.503937 0 -0.866142 

vt 1 1 
vt 0 1 
vt 1 0 
vt 0 0 

usemtl Board2Mtl

f 73/73/73 74/74/74 75/75/75 
f 75/75/75 74/74/74 76/76/76 

g Part3

v 793.799 206.4 60.4495 
v 794.303 206.4 61.3132 
v 793.799 191.4 60.4495 
v 794.303 191.4 61.3132 
v 793.439 206.4 61.8172 
v 794.303 206.4 61.3132 
v 792.935 206.4 60.9535 
v 793.799 206.4 60.4495 
v 794.303 206.4 61.3132 
v 793.439 206.4 61.8172 
v 794.303 191.4 61.3132 
v 793.439 191.4 61.8172 
v 793.439 206.4 61.8172 
v 792.935 206.4 60.9535 
v 793.439 191.4 61.8172 
v 792.935 191.4 60.9535 
v 792.935 191.4 60.9535 
v 793.799 191.4 60.4495 
v 793.439 191.4 61.8172 
v 794.303 191.4 61.3132 
v 792.935 206.4 60.9535 
v 793.799 206.4 60.4495 
v 792.935 191.4 60.9535 
v 793.799 191.4 60.4495 

vn 0.866142 0 -0.503937 
vn 0.866142 0 -0.503937 
vn 0.866142 0 -0.503937 
vn 0.866142 0 -0.503937 
vn 0 1 0 
vn 0 1 0 
vn 0 1 0 
vn 0 1 0 
vn 0.503937 0 0.866142 
vn 0.503937 0 0.866142 
vn 0.503937 0 0.866142 
vn 0.503937 0 0.866142 
vn -0.866142 0 0.503937 
vn -0.866142 0 0.503937 
vn -0.866142 0 0.503937 
vn -0.866142 0 0.503937 
vn 0 -1 0 
vn 0 -1 0 
vn 0 -1 0 
vn 0 -1 0 
vn -0.503937 0 -0.866142 
vn -0.503937 0 -0.866142 
vn -0.503937 0 -0.866142 
vn -0.503937 0 -0.866142 

vt 1.125 -5 
vt 1 -5 
vt 1.125 -6.875 
vt 1 -6.875 
vt 1.125 -5 
vt 1 -5 
vt 1.125 -5.125 
vt 1 -5.125 
vt 1.125 -5 
vt 1 -5 
vt 1.125 -6.875 
vt 1 -6.875 
vt 1.125 -5 
vt 1 -5 
vt 1.125 -6.875 
vt 1 -6.875 
vt 1.125 -5 
vt 1 -5 
vt 1.125 -5.125 
vt 1 -5.125 
vt 1.125 -5 
vt 1 -5 
vt 1.125 -6.875 
vt 1 -6.875 

usemtl Part1Mtl

f 77/77/77 78/78/78 79/79/79 
f 79/79/79 78/78/78 80/80/80 
f 81/81/81 82/82/82 83/83/83 
f 83/83/83 82/82/82 84/84/84 
f 85/85/85 86/86/86 87/87/87 
f 87/87/87 86/86/86 88/88/88 
f 89/89/89 90/90/90 91/91/91 
f 91/91/91 90/90/90 92/92/92 
f 93/93/93 94/94/94 95/95/95 
f 95/95/95 94/94/94 96/96/96 
f 97/97/97 98/98/98 99/99/99 
f 99/99/99 98/98/98 100/100/100 

g Part4

v 802.436 207.4 55.409 
v 802.94 207.4 56.2727 
v 802.436 206.4 55.409 
v 802.94 206.4 56.2727 
v 793.439 207.4 61.8172 
v 802.94 207.4 56.2727 
v 792.935 207.4 60.9535 
v 802.436 207.4 55.409 
v 802.94 207.4 56.2727 
v 793.439 207.4 61.8172 
v 802.94 206.4 56.2727 
v 793.439 206.4 61.8172 
v 793.439 207.4 61.8172 
v 792.935 207.4 60.9535 
v 793.439 206.4 61.8172 
v 792.935 206.4 60.9535 
v 792.935 206.4 60.9535 
v 802.436 206.4 55.409 
v 793.439 206.4 61.8172 
v 802.94 206.4 56.2727 
v 792.935 207.4 60.9535 
v 802.436 207.4 55.409 
v 792.935 206.4 60.9535 
v 802.436 206.4 55.409 

vn 0.866142 0 -0.503937 
vn 0.866142 0 -0.503937 
vn 0.866142 0 -0.503937 
vn 0.866142 0 -0.503937 
vn 0 1 0 
vn 0 1 0 
vn 0 1 0 
vn 0 1 0 
vn 0.503937 0 0.866142 
vn 0.503937 0 0.866142 
vn 0.503937 0 0.866142 
vn 0.503937 0 0.866142 
vn -0.866142 0 0.503937 
vn -0.866142 0 0.503937 
vn -0.866142 0 0.503937 
vn -0.866142 0 0.503937 
vn 0 -1 0 
vn 0 -1 0 
vn 0 -1 0 
vn 0 -1 0 
vn -0.503937 0 -0.866142 
vn -0.503937 0 -0.866142 
vn -0.503937 0 -0.866142 
vn -0.503937 0 -0.866142 

vt 7.875 -6.25 
vt 7.75 -6.25 
vt 7.875 -6.375 
vt 7.75 -6.375 
vt 9.125 -6.25 
vt 7.75 -6.25 
vt 9.125 -6.375 
vt 7.75 -6.375 
vt 9.125 -6.25 
vt 7.75 -6.25 
vt 9.125 -6.375 
vt 7.75 -6.375 
vt 7.875 -6.25 
vt 7.75 -6.25 
vt 7.875 -6.375 
vt 7.75 -6.375 
vt 9.125 -6.25 
vt 7.75 -6.25 
vt 9.125 -6.375 
vt 7.75 -6.375 
vt 9.125 -6.25 
vt 7.75 -6.25 
vt 9.125 -6.375 
vt 7.75 -6.375 

usemtl Part1Mtl

f 101/101/101 102/102/102 103/103/103 
f 103/103/103 102/102/102 104/104/104 
f 105/105/105 106/106/106 107/107/107 
f 107/107/107 106/106/106 108/108/108 
f 109/109/109 110/110/110 111/111/111 
f 111/111/111 110/110/110 112/112/112 
f 113/113/113 114/114/114 115/115/115 
f 115/115/115 114/114/114 116/116/116 
f 117/117/117 118/118/118 119/119/119 
f 119/119/119 118/118/118 120/120/120 
f 121/121/121 122/122/122 123/123/123 
f 123/123/123 122/122/122 124/124/124 

